# xmcd CD database file
#
# Track frame offsets:
#	150
#	22200
#	43800
#	63638
#	89250
#	109388
#	128438
#	146363
#	164425
#	181600
#
# Disc length: 2631 seconds
#
# Revision: 0
# Processed by: cddbd v1.4PL0 Copyright (c) Steve Scherf et al.
# Submitted via: CDex 1.50
#
DISCID=870a450a
DTITLE=Artificial Intelligence - data drone
DYEAR=1990
DGENRE=New Age
TTITLE0=data drone
TTITLE1=third time
TTITLE2=the fire inside you
TTITLE3=a storm is coming
TTITLE4=at the edge of the world
TTITLE5=promises
TTITLE6=the dance of balance
TTITLE7=lanterns on the water
TTITLE8=the street without joy
TTITLE9=the masai warrior and the atom bomb
EXTD=YEAR: 1990
EXTT0=
EXTT1=
EXTT2=
EXTT3=
EXTT4=
EXTT5=
EXTT6=
EXTT7=
EXTT8=
EXTT9=
PLAYORDER=
